<svg xmlns="http://www.w3.org/2000/svg" viewBox="0 0 100 100" fill-rule="evenodd"><g class="t-group-origins"><path d="M75 17.22a1.51 1.51 0 0 0-.09-.28l-.05-.1a1.5 1.5 0 0 0-.08-.15v-.06a1.48 1.48 0 0 0-.42-.38l-.21-.11-33-13.5A1.5 1.5 0 0 0 39 4v12H27.5a1.5 1.5 0 0 0-1.5 1.5v75a1.5 1.5 0 0 0 1.5 1.5h46a1.5 1.5 0 0 0 1.5-1.5v-75a1.49 1.49 0 0 0 0-.28Zm-33-11L65.87 16H42ZM72 91H29V19h43Z" stroke-width="0" stroke="#ffffff" fill="#ffffff" stroke-width-old="0"></path><path d="M38.92 34.5A11.76 11.76 0 0 0 49 46.12V53h-5a1.5 1.5 0 0 0 0 3h13a1.5 1.5 0 0 0 0-3h-5v-6.83A11.76 11.76 0 0 0 62.42 34.5a1.5 1.5 0 0 0-1.5-1.5h-20.5a1.5 1.5 0 0 0-1.5 1.5ZM59.3 36a8.75 8.75 0 0 1-17.24 0ZM36 68.5a1.5 1.5 0 0 0 1.5 1.5h26a1.5 1.5 0 0 0 0-3h-26a1.5 1.5 0 0 0-1.5 1.5ZM57.17 75h-13a1.5 1.5 0 0 0 0 3h13a1.5 1.5 0 0 0 0-3Z" stroke-width="0" stroke="#ffffff" fill="#ffffff" stroke-width-old="0"></path></g></svg>
