<svg xmlns="http://www.w3.org/2000/svg" viewBox="0 0 100 100" fill-rule="evenodd"><g class="t-group-origins"><path d="M48.78 25.43a28.78 28.78 0 1 0 28.79 28.79 28.82 28.82 0 0 0-28.79-28.79Zm0 54.57a25.78 25.78 0 1 1 25.79-25.78A25.81 25.81 0 0 1 48.78 80ZM94.5 28a1.5 1.5 0 0 0-1.5 1.5V41h-3V29.5a1.5 1.5 0 0 0-3 0V41h-3V29.5a1.5 1.5 0 0 0-3 0v13a1.5 1.5 0 0 0 1.5 1.5H87v34.5a1.5 1.5 0 0 0 3 0V44h4.5a1.5 1.5 0 0 0 1.5-1.5v-13a1.5 1.5 0 0 0-1.5-1.5Zm-81.39 0a1.5 1.5 0 0 0-1.62.26c-.36.32-8.71 8.15-8.71 28.19A1.5 1.5 0 0 0 4.28 58H11v20.5a1.5 1.5 0 0 0 3 0V29.42a1.5 1.5 0 0 0-.89-1.42ZM11 55H5.8C6 44.31 8.84 37.56 11 33.92Z" stroke-width="1" stroke="#ffffff" fill="#ffffff" stroke-width-old="0"></path><path d="M66 55.14a1.5 1.5 0 0 0-1.71 1.25 15.35 15.35 0 0 1-15.07 13H49a15.4 15.4 0 0 1-.15-30.81 1.5 1.5 0 0 0 0-3 18.4 18.4 0 0 0 .15 36.8h.18a18.34 18.34 0 0 0 18-15.52A1.5 1.5 0 0 0 66 55.14Zm-8.73-14.22A15.46 15.46 0 0 1 62.71 47a1.5 1.5 0 1 0 2.69-1.34 18.45 18.45 0 0 0-6.49-7.27 1.5 1.5 0 1 0-1.63 2.52Z" stroke-width="1" stroke="#ffffff" fill="#ffffff" stroke-width-old="0"></path></g></svg>
