<svg xmlns="http://www.w3.org/2000/svg" viewBox="0 0 100 100" fill-rule="evenodd"><g class="t-group-origins"><path d="M50.0797 2.25684C55.7022 2.26236 59.8964 9.59793 62.4247 15.7508C65.1178 22.3033 67.0657 30.5298 67.0574 35.3113L67.0542 38.0495C69.7108 39.7206 78.0694 45.131 80.2744 48.4047C82.7153 52.0152 83.9946 63.35 82.3164 66.5036C82.0527 66.9994 81.7388 67.322 81.4248 67.5306C80.9683 67.8339 80.5128 67.8964 80.2113 67.8962C78.2752 67.8932 72.3971 63.5997 67.0285 59.3303L67.0136 71.4098C67.0037 77.1792 64.0563 82.4811 59.3878 85.5829C58.5621 86.1327 57.6824 86.6103 56.756 87.0121L56.7503 91.1939C56.7454 93.4291 55.5746 95.4075 53.7946 96.5901C52.6545 97.346 51.3161 97.7473 49.9482 97.7434C48.1694 97.7515 46.4568 97.0692 45.1708 95.8402C43.8733 94.5976 43.1612 92.9421 43.1645 91.1798L43.1703 86.9835C37.0193 84.2977 32.9558 78.1563 32.9601 71.3665L32.974 61.2915L32.9734 61.287L32.9743 61.2829L32.9753 60.0864C30.2053 62.2762 27.3021 64.4715 24.8717 66.0863C22.5811 67.6082 20.7119 68.6148 19.7742 68.6147C19.2636 68.6142 18.3142 68.4321 17.6721 67.2199C16.0021 64.0649 17.306 52.733 19.7549 49.1238C21.9747 45.8565 30.3416 40.468 33.0032 38.8017L33.0079 35.2616C33.016 30.4779 34.9873 22.2576 37.6965 15.7152C40.2428 9.56926 44.4565 2.24828 50.0797 2.25684ZM50.0758 5.25611C47.0741 5.25027 43.4803 9.59015 40.4688 16.8628C37.548 23.9143 36.0146 31.4583 36.0058 35.2652L36.0002 39.7003L35.9739 59.7893L44.6705 59.7994C44.6766 59.7996 44.6824 59.7987 44.6881 59.7979C44.6939 59.7971 44.6996 59.7963 44.7057 59.7964C44.7121 59.7961 44.7183 59.7971 44.7245 59.798C44.7297 59.7988 44.7349 59.7997 44.7404 59.7998L64.0257 59.8235L64.0556 35.3054C64.0627 31.4997 62.5519 23.9528 59.6494 16.8899C56.6583 9.60865 53.0795 5.25944 50.0758 5.25611ZM22.237 50.8088C20.2146 53.7913 19.4123 63.1115 20.1696 65.4729C22.0569 64.6128 27.9455 60.2898 32.9805 56.2434L32.999 42.3643C29.2923 44.7706 23.6934 48.6658 22.237 50.8088ZM35.9717 62.7911L35.9602 71.3698C35.9623 73.8731 36.6319 76.3306 37.8998 78.489C39.1678 80.6475 40.9884 82.4288 43.1739 83.6495L43.2028 62.8L35.9717 62.7911ZM49.9488 94.7428C52.0389 94.7444 53.7449 93.1487 53.7493 91.1876L53.7876 62.8113L46.2031 62.8019L46.1724 85.8894L46.1718 85.9354L46.1646 91.1831C46.1621 92.1189 46.547 93.0037 47.2457 93.674C47.9746 94.3664 48.9434 94.7495 49.9488 94.7428ZM56.7596 83.6708C61.1636 81.2371 64.0057 76.5465 64.0133 71.4042L64.0234 62.8252L56.7874 62.8161L56.7596 83.6708ZM79.8291 64.7297C80.5815 62.3329 79.7987 53.0609 77.7865 50.0829C76.341 47.9362 70.7504 44.0267 67.0491 41.6127L67.0326 55.4857C72.0025 59.5037 77.8126 63.7979 79.8291 64.7297ZM55.2826 41.6839C53.58 42.8162 51.5796 43.4178 49.5349 43.4125C48.1703 43.4147 46.8189 43.1465 45.5586 42.6234C44.2983 42.1002 43.1542 41.3325 42.1924 40.3645C41.225 39.4003 40.4586 38.2536 39.9377 36.9909C39.4167 35.7283 39.1517 34.3747 39.1578 33.0089C39.1608 30.2359 40.2446 27.6297 42.2099 25.6708C44.1753 23.7119 46.7857 22.6355 49.56 22.6387C55.2873 22.643 59.9423 27.3073 59.9382 33.0368L59.938 33.0382C59.9323 36.6437 58.0812 39.8245 55.2826 41.6839ZM42.7212 30.185C42.3488 31.0806 42.1579 32.0412 42.1596 33.0111C42.1549 33.9826 42.3432 34.9454 42.7137 35.8436C43.0841 36.7417 43.6292 37.5573 44.3174 38.2431C45.0007 38.9323 45.8141 39.4788 46.7104 39.851C47.6067 40.2231 48.568 40.4135 49.5385 40.411C53.6119 40.418 56.932 37.1064 56.9376 33.0326C56.9412 28.9578 53.6299 25.6399 49.5578 25.6369C48.5869 25.633 47.6249 25.8217 46.7274 26.1919C45.8299 26.5622 45.0147 27.1067 44.3289 27.7939C43.64 28.4767 43.0936 29.2894 42.7212 30.185Z" stroke-width="0" stroke="#ffffff" fill="#ffffff" stroke-width-old="0"></path></g></svg>
