<svg xmlns="http://www.w3.org/2000/svg" viewBox="0 0 100 100" fill-rule="evenodd"><g><path d="M81.271 19.634h-62.54c-5.68 0-10.301 4.622-10.301 10.302V70.06c0 5.682 4.621 10.304 10.301 10.304h62.54c5.68 0 10.301-4.622 10.301-10.304V29.936c-.001-5.68-4.622-10.302-10.301-10.302zm7.3 50.427c0 4.027-3.275 7.304-7.301 7.304H18.73c-4.025 0-7.301-3.276-7.301-7.304V29.937c0-4.026 3.275-7.302 7.301-7.302h62.54c4.025 0 7.301 3.276 7.301 7.302v40.124z" stroke-width="0" stroke="#ffffff" fill="#ffffff"></path><path d="M44.584 52.365H22.726a1.5 1.5 0 0 0 0 3h21.858a1.5 1.5 0 1 0 0-3zm0-8.805H22.726a1.5 1.5 0 1 0 0 3h21.858a1.5 1.5 0 0 0 0-3zm27.5 16.755a1.5 1.5 0 0 0-1.5 1.5v7.289a1.5 1.5 0 0 0 3 0v-7.289a1.5 1.5 0 0 0-1.5-1.5zm0-14.566a1.5 1.5 0 0 0-1.5 1.5v7.286a1.5 1.5 0 1 0 3 0v-7.286a1.5 1.5 0 0 0-1.5-1.5zm0-14.573a1.5 1.5 0 0 0-1.5 1.5v7.289a1.5 1.5 0 1 0 3 0v-7.289a1.5 1.5 0 0 0-1.5-1.5z" stroke-width="0" stroke="#ffffff" fill="#ffffff"></path></g></svg>
