<svg xmlns="http://www.w3.org/2000/svg" viewBox="0 0 100 100" fill-rule="evenodd"><g class="t-group-origins"><path d="M55.015 46.881a1.489 1.489 0 0 0-.025-.326c-.006-.031-.011-.062-.019-.093a1.494 1.494 0 0 0-.136-.361 1.48 1.48 0 0 0-.235-.31c-.021-.022-.042-.041-.064-.062a1.585 1.585 0 0 0-.274-.204l-.034-.022a1.464 1.464 0 0 0-.352-.132c-.029-.007-.057-.011-.087-.016a1.505 1.505 0 0 0-.322-.024c-.017.001-.033-.005-.049-.004l-26.735 1.831a1.5 1.5 0 0 0-.857 2.65l8.873 7.376 1.487 11.442a1.502 1.502 0 0 0 1.488 1.307c.47 0 .923-.222 1.209-.613L54.73 47.711c.01-.014.014-.03.023-.044.062-.09.112-.186.152-.286.011-.028.023-.054.033-.083.039-.118.066-.24.076-.364.003-.018.001-.035.001-.053zm-8.166 1.904L36.284 54.6l-5.659-4.704 16.224-1.111zM38.68 64.527l-.949-7.298 10.566-5.816-9.617 13.114z" stroke-width="1" stroke="#ffffff" fill="#ffffff" stroke-width-old="0"></path><path d="M94.764 51.659a1.487 1.487 0 0 0-.159-.837l-2.782-5.373a1.499 1.499 0 0 0-2.021-.642h-.001a1.627 1.627 0 0 1-1.254.106 1.627 1.627 0 0 1-.961-.811 1.639 1.639 0 0 1-.107-1.256c.133-.418.42-.759.81-.96.553-.285.853-.866.807-1.45l-.004-.021a1.475 1.475 0 0 0-.048-.269c-.011-.04-.032-.079-.047-.119-.02-.054-.037-.109-.064-.162v-.002l-2.78-5.372a1.5 1.5 0 0 0-2.021-.643 1.653 1.653 0 0 1-2.221-.703 1.648 1.648 0 0 1 .705-2.219 1.5 1.5 0 0 0 .643-2.021c-.021-.04-.048-.073-.072-.11-.015-.035-.024-.071-.042-.105l-2.781-5.372a1.498 1.498 0 0 0-2.021-.643h-.001c-.389.202-.834.24-1.254.106a1.626 1.626 0 0 1-.961-.81 1.648 1.648 0 0 1 .703-2.219 1.5 1.5 0 0 0 .643-2.021c-.008-.016-.021-.029-.029-.045-.01-.021-.015-.043-.025-.064l-2.785-5.372a1.491 1.491 0 0 0-.685-.658 1.5 1.5 0 0 0-1.482-.064L6.205 45.921a4.552 4.552 0 0 0-1.944 6.127l3.846 7.451a1.5 1.5 0 0 0 1.327.812 10.324 10.324 0 0 1 7.301 3.039 10.347 10.347 0 0 1 1.136 13.298 1.499 1.499 0 0 0-.106 1.552l3.816 7.385a4.51 4.51 0 0 0 2.663 2.25 4.516 4.516 0 0 0 3.475-.296l66.25-34.386c.564-.293.86-.896.795-1.494zM26.336 84.876a1.542 1.542 0 0 1-1.182.1 1.536 1.536 0 0 1-.907-.767l-3.416-6.61a13.337 13.337 0 0 0-1.976-16.37 13.287 13.287 0 0 0-8.483-3.883l-3.447-6.678a1.548 1.548 0 0 1 .662-2.085l65.008-33.739 1.647 3.176c-1.33 1.395-1.716 3.524-.782 5.33a4.609 4.609 0 0 0 2.719 2.292c.464.147.939.22 1.412.22.229 0 .456-.023.682-.057l1.754 3.388c-1.329 1.395-1.715 3.525-.78 5.332a4.655 4.655 0 0 0 4.135 2.506c.226 0 .452-.023.679-.056l1.642 3.172a4.6 4.6 0 0 0-1.082 1.792 4.621 4.621 0 0 0 .301 3.541 4.605 4.605 0 0 0 2.719 2.292c.464.147.939.221 1.413.221.228 0 .455-.023.681-.057l1.647 3.179-65.046 33.761z" stroke-width="1" stroke="#ffffff" fill="#ffffff" stroke-width-old="0"></path></g></svg>
