<svg xmlns="http://www.w3.org/2000/svg" data-name="Layer 1" viewBox="0 0 512 512"><linearGradient id="a" x1="261.1" x2="261.1" y1="311.292" y2="59.723" gradientUnits="userSpaceOnUse"><stop offset="0" stop-color="#fff"/><stop offset=".086" stop-color="#fff" stop-opacity=".968"/><stop offset=".219" stop-color="#fff" stop-opacity=".881"/><stop offset=".384" stop-color="#fff" stop-opacity=".738"/><stop offset=".575" stop-color="#fff" stop-opacity=".54"/><stop offset=".786" stop-color="#fff" stop-opacity=".287"/><stop offset="1" stop-color="#fff" stop-opacity="0"/></linearGradient><path fill="#6bc45a" fill-rule="evenodd" d="M209.547 59.723h103.106c83.596 0 151.487 67.17 151.487 149.878v102.01c0 82.708-67.891 149.878-151.487 149.878H209.547c-83.595 0-151.487-67.17-151.487-149.877V209.6c0-82.708 67.892-149.878 151.487-149.878z"/><path fill="#fff" fill-rule="evenodd" d="M390.7 256.751c0 69.47-57.024 125.217-127.007 125.217a132.567 132.567 0 0 1-61.345-15.438l-70.848 22.3 23.328-66.897a126.573 126.573 0 0 1-18.144-64.324c0-69.47 57.024-125.217 127.008-125.217 69.984-.858 127.008 54.89 127.008 124.36zm-127.007-105.49c-58.752 0-107.137 47.17-107.137 105.49a102.252 102.252 0 0 0 20.737 61.75l-12.96 39.452 41.472-12.864a107.032 107.032 0 0 0 58.752 17.153c58.752 0 107.136-47.171 107.136-105.491-.865-58.32-49.248-105.49-108-105.49zm63.935 134.65c-.864-.857-2.592-1.715-6.048-3.43s-18.144-8.577-21.6-10.292c-2.592-.857-5.184-1.715-6.912 1.715s-7.776 10.292-9.504 12.007-3.456 2.574-6.912.858-12.96-5.146-25.056-15.437a72.11 72.11 0 0 1-17.28-21.442c-1.728-3.43 0-5.146 1.729-6.003a22.76 22.76 0 0 0 4.32-5.146c1.728-1.715 1.728-3.43 3.456-5.146a5.43 5.43 0 0 0 0-5.146c-.865-1.715-6.912-16.296-9.505-23.157-2.591-6.003-5.183-5.146-6.91-5.146h-6.05a16.091 16.091 0 0 0-8.64 3.43c-2.59 3.431-11.23 10.293-11.23 25.73s11.23 30.02 12.959 31.734 21.6 34.306 53.568 46.313 31.968 8.577 37.152 7.719c6.048-.857 18.144-7.719 20.736-14.58 2.592-7.72 2.592-13.723 1.727-14.58z"/><path fill="url(#a)" d="M312.653 59.723H209.547c-83.595 0-151.487 67.17-151.487 149.877v49.146c16.726 36.006 65.451 87.519 203.565 18.579C405.965 205.264 422.491 229.7 464.14 251.2V209.6c0-82.707-67.891-149.877-151.487-149.877z" opacity=".4"/></svg>